HIERARCHY
ROOT Hips
{
    OFFSET 0.000000 0.000000 0.000000
    CHANNELS 6 Xposition Yposition Zposition Zrotation Xrotation Yrotation
    JOINT Spine
    {
        OFFSET -0.000000 14.517291 0.000000
        CHANNELS 3 Zrotation Xrotation Yrotation
        JOINT Spine1
        {
            OFFSET -0.000000 37.558300 0.000000
            CHANNELS 3 Zrotation Xrotation Yrotation
            JOINT Neck
            {
                OFFSET -0.000000 37.404057 3.400369
                CHANNELS 3 Zrotation Xrotation Yrotation
                JOINT Head
                {
                    OFFSET -0.000000 24.785618 -3.540803
                    CHANNELS 3 Zrotation Xrotation Yrotation
                    End Site
                    {
                        OFFSET -0.000000 35.408028 0.000000
                    }
                }
            }
            JOINT LeftShoulder
            {
                OFFSET 6.992933 33.973492 -0.192664
                CHANNELS 3 Zrotation Xrotation Yrotation
                JOINT LeftArm
                {
                    OFFSET 21.527611 0.000000 0.000000
                    CHANNELS 3 Zrotation Xrotation Yrotation
                    JOINT LeftForeArm
                    {
                        OFFSET 56.353916 0.000000 0.000000
                        CHANNELS 3 Zrotation Xrotation Yrotation
                        JOINT LeftHand
                        {
                            OFFSET 47.774071 0.000000 0.000000
                            CHANNELS 3 Zrotation Xrotation Yrotation
                            End Site
                            {
                                OFFSET 26.556021 0.000000 0.000000
                            }
                        }
                    }
                }
            }
            JOINT RightShoulder
            {
                OFFSET -7.065357 33.973492 -0.192664
                CHANNELS 3 Zrotation Xrotation Yrotation
                JOINT RightArm
                {
                    OFFSET -21.527611 0.000000 0.000000
                    CHANNELS 3 Zrotation Xrotation Yrotation
                    JOINT RightForeArm
                    {
                        OFFSET -56.353916 0.000000 0.000000
                        CHANNELS 3 Zrotation Xrotation Yrotation
                        JOINT RightHand
                        {
                            OFFSET -47.774071 0.000000 0.000000
                            CHANNELS 3 Zrotation Xrotation Yrotation
                            End Site
                            {
                                OFFSET -26.556021 0.000000 0.000000
                            }
                        }
                    }
                }
            }
        }
    }
    JOINT LeftUpLeg
    {
        OFFSET 17.704014 0.000000 0.000000
        CHANNELS 3 Zrotation Xrotation Yrotation
        JOINT LeftLeg
        {
            OFFSET -0.000000 -81.181816 0.000000
            CHANNELS 3 Zrotation Xrotation Yrotation
            JOINT LeftFoot
            {
                OFFSET -0.000000 -62.821102 0.000000
                CHANNELS 3 Zrotation Xrotation Yrotation
                JOINT LeftToeBase
                {
                    OFFSET -0.000000 -11.507608 26.556021
                    CHANNELS 3 Zrotation Xrotation Yrotation
                    End Site
                    {
                        OFFSET -0.000000 0.000000 7.081605
                    }
                }
            }
        }
    }
    JOINT RightUpLeg
    {
        OFFSET -17.704014 0.000000 0.000000
        CHANNELS 3 Zrotation Xrotation Yrotation
        JOINT RightLeg
        {
            OFFSET -0.000000 -81.181816 0.000000
            CHANNELS 3 Zrotation Xrotation Yrotation
            JOINT RightFoot
            {
                OFFSET -0.000000 -62.821102 0.000000
                CHANNELS 3 Zrotation Xrotation Yrotation
                JOINT RightToeBase
                {
                    OFFSET -0.000000 -11.507608 26.556021
                    CHANNELS 3 Zrotation Xrotation Yrotation
                    End Site
                    {
                        OFFSET -0.000000 0.000000 7.081605
                    }
                }
            }
        }
    }
}
MOTION
Frames:    9
Frame Time:    0.008333
-18.751451    166.493958    -20.883965    -13.402184    -18.373974    34.810482    1.553418    1.235900    -15.344167    -2.201344    8.607024    -4.940330    40.004818    14.629851    4.486887    -15.094990    -7.641699    0.880466    16.524920    13.187487    -30.130075    -33.119381    11.172889    -50.806133    1.430919    -37.144321    -99.009819    -14.362557    -33.864574    -18.518047    -0.466285    2.017597    -22.743507    25.590466    11.369999    -14.835157    17.443974    21.462347    55.885773    -22.835649    8.023120    22.413124    23.498257    -1.561202    10.827965    -2.800555    32.671295    -15.470260    5.667594    -19.007484    31.653440    0.000000    0.000000    0.000000    -97.802376    -50.802853    -62.043114    8.775531    19.947166    -8.294263    16.299221    22.774845    -24.759745    0.000000    0.000000    0.000000    
-18.760977    166.483978    -20.884972    -13.358394    -18.422054    34.898560    1.530393    1.279728    -15.306240    -2.144046    8.600774    -4.932128    39.937546    14.550169    4.474598    -15.027091    -7.605238    0.856566    16.516056    13.173971    -30.139513    -33.080273    11.207683    -50.882027    1.453252    -37.196384    -99.021439    -14.370739    -33.892422    -18.548193    -0.411199    1.995867    -22.727663    25.564526    11.249184    -14.695268    17.518414    21.681559    55.968552    -22.890734    8.172273    22.491999    23.512953    -1.548827    10.744824    -2.847185    32.694584    -15.464354    5.703622    -19.011427    31.656086    0.000000    0.000000    0.000000    -97.692650    -50.696136    -61.965294    8.772322    19.932430    -8.335872    16.332186    22.698254    -24.816458    0.000000    0.000000    0.000000    
-18.761620    166.471649    -20.887672    -13.305576    -18.454174    34.996704    1.517327    1.292427    -15.262556    -2.124761    8.620203    -4.918705    39.867378    14.443251    4.472894    -14.946635    -7.559457    0.837078    16.531296    13.154013    -30.110607    -33.065834    11.222681    -50.998070    1.478461    -37.229362    -99.016136    -14.410177    -33.892738    -18.588081    -0.355906    1.961242    -22.727070    25.627510    11.216037    -14.566122    17.306726    21.939383    56.121284    -22.993837    8.515460    22.469316    23.504349    -1.539313    10.680951    -2.870016    32.702248    -15.466567    5.721347    -19.022301    31.637278    0.000000    0.000000    0.000000    -97.609901    -50.578991    -61.915390    8.764853    19.921219    -8.351345    16.357899    22.614080    -24.895977    0.000000    0.000000    0.000000    
-18.764227    166.453201    -20.894894    -13.256300    -18.474848    35.086327    1.501516    1.306458    -15.202296    -2.080799    8.613392    -4.902101    39.807262    14.379305    4.458802    -14.914867    -7.561121    0.805115    16.511677    13.124807    -30.106407    -33.041870    11.245503    -51.069344    1.519658    -37.267467    -99.002846    -14.443010    -33.884472    -18.623259    -0.306406    1.935381    -22.712114    25.675470    11.222950    -14.482512    17.183090    21.988104    56.378021    -22.874269    8.555396    22.728138    23.498222    -1.532892    10.643813    -2.903024    32.703426    -15.445821    5.743831    -19.037680    31.581144    0.000000    0.000000    0.000000    -97.552467    -50.472698    -61.882107    8.748021    19.909021    -8.352976    16.406488    22.546835    -24.990541    0.000000    0.000000    0.000000    
-18.764709    166.437698    -20.896881    -13.198393    -18.498106    35.190498    1.478939    1.322920    -15.138341    -2.015401    8.597985    -4.886034    39.724529    14.317220    4.441668    -14.897160    -7.564087    0.768156    16.464975    13.083093    -30.117527    -33.002914    11.262674    -51.095123    1.530632    -37.282082    -99.010948    -14.417013    -33.889599    -18.648663    -0.287445    1.896547    -22.684206    25.755024    11.306794    -14.387593    16.922972    22.119137    56.645081    -22.975468    8.814560    22.491528    23.486973    -1.521445    10.625216    -2.915120    32.702316    -15.474236    5.781784    -19.038803    31.540083    0.000000    0.000000    0.000000    -97.486214    -50.354355    -61.848141    8.729195    19.891825    -8.346992    16.433392    22.481607    -25.046782    0.000000    0.000000    0.000000    
-18.754646    166.419632    -20.897549    -13.125311    -18.525688    35.299488    1.466507    1.345562    -15.074080    -1.972017    8.582268    -4.868183    39.628513    14.243082    4.437830    -14.854612    -7.554360    0.747526    16.444593    13.054699    -30.110926    -32.972553    11.283703    -51.141491    1.597386    -37.378750    -99.056953    -14.450758    -33.947392    -18.390379    -0.269116    1.857993    -22.642506    25.714670    11.240726    -14.282913    16.904783    22.402210    56.803623    -23.076315    9.048513    22.621174    23.464552    -1.492393    10.617934    -2.911635    32.692631    -15.530877    5.809401    -19.046776    31.496166    0.000000    0.000000    0.000000    -97.421242    -50.235668    -61.805622    8.708209    19.882107    -8.328054    16.446026    22.421928    -25.084003    0.000000    0.000000    0.000000    
-18.740105    166.402573    -20.893286    -13.044387    -18.553362    35.417984    1.449389    1.360680    -15.007004    -1.925560    8.579168    -4.849434    39.523926    14.177410    4.428288    -14.813562    -7.566035    0.721585    16.435804    13.030712    -30.079552    -32.941273    11.347031    -51.222179    1.680136    -37.464264    -98.964684    -14.574869    -33.912621    -18.659025    -0.231101    1.827216    -22.586445    25.669001    11.194146    -14.168757    16.852217    22.639297    56.989979    -23.153210    9.274252    22.645231    23.436010    -1.468596    10.624827    -2.897206    32.699291    -15.612517    5.819958    -19.059746    31.453371    0.000000    0.000000    0.000000    -97.366600    -50.112621    -61.758678    8.690014    19.884476    -8.332244    16.490051    22.360317    -25.117273    0.000000    0.000000    0.000000    
-18.727629    166.377670    -20.892004    -12.964142    -18.568216    35.532562    1.442148    1.371282    -14.933695    -1.888680    8.565035    -4.828036    39.413261    14.099212    4.423918    -14.786189    -7.565790    0.695175    16.410641    12.979671    -30.033899    -32.991234    11.291873    -51.260151    1.569931    -37.343010    -99.042480    -14.442175    -33.919430    -18.565701    -0.194327    1.814235    -22.544743    25.669296    11.243955    -14.053611    16.685606    22.745535    57.319447    -23.124182    9.410001    22.709084    23.403069    -1.455280    10.630529    -2.891603    32.712086    -15.681296    5.833164    -19.079924    31.414324    0.000000    0.000000    0.000000    -97.341301    -49.998260    -61.728630    8.673568    19.884281    -8.334563    16.488434    22.322840    -25.123756    0.000000    0.000000    0.000000    
-18.712894    166.357986    -20.890085    -12.888769    -18.591194    35.647751    1.457522    1.387572    -14.846171    -1.850183    8.531396    -4.802238    39.236332    14.018300    4.403967    -14.687879    -7.572971    0.667224    16.362612    12.910966    -29.988022    -32.990627    11.331048    -51.282043    1.543469    -37.367252    -99.085976    -14.419415    -33.974747    -18.544237    -0.159771    1.837310    -22.507627    25.578627    11.084605    -13.900766    16.689817    23.048016    57.528469    -23.245670    9.652012    22.778660    23.375658    -1.441770    10.614502    -2.885370    32.728706    -15.773174    5.888879    -19.073559    31.405054    0.000000    0.000000    0.000000    -97.297935    -49.888912    -61.700218    8.639942    19.888824    -8.307484    16.505867    22.286339    -25.129402    0.000000    0.000000    0.000000    
